<?xml version="1.0" standalone="no"?>
<!DOCTYPE svg PUBLIC "-//W3C//DTD SVG 20010904//EN"
 "http://www.w3.org/TR/2001/REC-SVG-20010904/DTD/svg10.dtd">
<svg version="1.0" xmlns="http://www.w3.org/2000/svg"
 width="522.000000pt" height="522.000000pt" viewBox="0 0 522.000000 522.000000"
 preserveAspectRatio="xMidYMid meet">
<metadata>
Created by potrace 1.11, written by Peter Selinger 2001-2013
</metadata>
<g transform="translate(0.000000,522.000000) scale(0.100000,-0.100000)"
fill="#000000" stroke="none">
<path d="M2425 5212 c-44 -3 -240 -28 -293 -38 -94 -16 -312 -77 -427 -120
-147 -54 -369 -164 -495 -246 -304 -196 -564 -452 -765 -753 -232 -348 -370
-728 -422 -1165 -16 -134 -9 -529 12 -655 108 -645 396 -1174 856 -1575 40
-36 76 -68 79 -71 3 -3 39 -30 80 -61 323 -237 666 -391 1040 -467 115 -24
143 -28 315 -46 47 -5 364 -6 415 -1 148 15 163 17 290 41 786 148 1478 674
1837 1397 125 252 216 546 248 798 3 25 8 70 12 100 15 121 8 489 -12 625 -2
17 -6 44 -9 60 -17 117 -64 299 -115 445 -142 415 -410 806 -756 1106 -109 94
-285 224 -305 224 -5 0 -10 4 -10 9 0 5 -10 13 -22 17 -12 3 -44 21 -72 39
-224 142 -628 279 -941 319 -22 3 -60 8 -85 12 -48 7 -387 11 -455 6z"/>
</g>
</svg>
